Nederland
Komedie / Misdaad
82 minuten

geregisseerd door Paul Ruven
met Yes-R, Onder Dogan en Georgina Verbaan

Als de begin twintigers Mahmut en Apo tot hun eigen verrassing leerling-gangsters mogen worden, komen ze er snel achter dat het echte gangsterleven toch heel anders is dan ze hadden verwacht. Voor ze zich zelf echter gangster mogen noemen, moeten ze zich eerst bewijzen en door vernederende ontgroeningsperiode heen. Als ze eindelijk het vertrouwen van hun bazen hebben gewonnen en hun eerste echte opdracht krijgen, verknallen ze die echter. Vanaf dat moment ziet hun toekomst er plotseling angstaanjagend somber uit. Om hun kansen te keren zullen ze nu een echt gevaarlijke list moeten verzinnen.
 
http://www.imdb.com/title/tt1444261/
 
http://www.moviemeter.nl/film/60015

Hoesjes bijgevoegd.

General
Complete name                    : Gangsterboys-AC3-XviD-DVDRip[Ned]2010 2Lions-Team\Gangsterboys-AC3-XviD-DVDRip[Ned]2010.avi
Format                           : AVI
Format/Info                      : Audio Video Interleave
File size                        : 1.36 GiB
Duration                         : 1h 26mn
Overall bit rate                 : 2 250 Kbps
Writing application              : VirtualDubMod 1.5.4.1 (build 2178/release)
Writing library                  : VirtualDubMod build 2178/release

Video
ID                               : 0
Format                           : MPEG-4 Visual
Format profile                   : Simple@L3
Format settings, BVOP            : No
Format settings, QPel            : No
Format settings, GMC             : No warppoints
Format settings, Matrix          : Default (H.263)
Codec ID                         : XVID
Codec ID/Hint                    : XviD
Duration                         : 1h 26mn
Bit rate                         : 1 792 Kbps
Width                            : 720 pixels
Height                           : 400 pixels
Display aspect ratio             : 16:9
Frame rate                       : 25.000 fps
Resolution                       : 8 bits
Colorimetry                      : 4:2:0
Scan type                        : Progressive
Bits/(Pixel*Frame)               : 0.249
Stream size                      : 1.08 GiB (80%)
Writing library                  : XviD 1.1.2 (UTC 2006-11-01)

Audio
ID                               : 1
Format                           : AC-3
Format/Info                      : Audio Coding 3
Format_Settings_ModeExtension    : CM (complete main)
Codec ID                         : 2000
Duration                         : 1h 26mn
Bit rate mode                    : Constant
Bit rate                         : 448 Kbps
Channel(s)                       : 6 channels
Channel positions                : Front: L C R, Side: L R, LFE
Sampling rate                    : 48.0 KHz
Stream size                      : 277 MiB (20%)
Alignment                        : Split accross interleaves
Interleave, duration             : 40 ms (1.00 video frame)
Interleave, preload duration     : 500 ms

Met dank aan Just_4_fun_Team voor de bron...

Brought to you by 
2Lions Team

meer zien??
Kom dan eens kijken op ons forum 
                    
http://www.2lions.ons-forum.nl

2Lions the site to be for all your Dutch MOVIES and more

******************************************

DON T HIT AND RUN Niet gelijk afhaken als de FILM binnen is blijf seeden. 

Don`t quit after you finished the download, but keep seeding

There are fake torrents from uploaders who use our team name.
Those are not ours, or members from our team.
We 2Lions-Team are not responsible for the fake posts on our name

Wij 2Lions-Team zijn niet verantwoordelijk voor die zieke FAKE posten die op onze naam worden gedaan

Please check our site !!!

to the fakers , get a life !!!